# xmcd
#
# Track frame offsets: 
#        150
#        17220
#        43380
#        69753
#        108762
#        137516
#        162140
#        188143
#        206177
#
# Disc length: 2957 seconds
#
# Revision: 0
# Processed by: cddbd v1.5.2PL0 Copyright (c) Steve Scherf et al.
# Submitted via: ExactAudioCopyFreeDBPlugin 1.0
#
DISCID=770b8b09
DTITLE=Chris Farlowe and The Thunderbirds - Bursting Over Bremen
DYEAR=1985
DGENRE=Rock
TTITLE0=I Haven't Found Nothing Yet (Live '85)
TTITLE1=Shakey Ground (Live '85)
TTITLE2=I've Been Born Again (Live '85)
TTITLE3=The Thrill Is Gone (Live '85)
TTITLE4=Lucille (Live '85)
TTITLE5=Sweet Little Sixteen (Live '85)
TTITLE6=Ain't No Love In The Heart Of The City (Live '85)
TTITLE7=I Believe In You (Live '85)
TTITLE8=Going Back To Louisiana (Live '85)
EXTD=
EXTT0=
EXTT1=
EXTT2=
EXTT3=
EXTT4=
EXTT5=
EXTT6=
EXTT7=
EXTT8=
PLAYORDER=
